<svg width="512" height="512" viewBox="0 0 512 512" fill="none" xmlns="http://www.w3.org/2000/svg">
<path fill-rule="evenodd" clip-rule="evenodd" d="M256 0C397.385 0 512 114.615 512 256C512 397.385 397.385 512 256 512C114.615 512 0 397.385 0 256C0 114.615 114.615 0 256 0ZM360.932 160.621C341.063 151.533 320.091 145.084 298.549 141.439C295.614 146.711 292.955 152.133 290.583 157.682C279.124 155.953 267.552 155.083 255.964 155.079C244.395 155.079 232.769 155.958 221.342 157.659C219.008 152.15 216.298 146.688 213.356 141.436C191.813 145.117 170.839 151.578 150.959 160.658C111.476 219.066 100.776 276.015 106.126 332.155C129.245 349.232 155.12 362.219 182.628 370.553C188.797 362.226 194.323 353.361 199.014 344.136C190.063 340.8 181.425 336.678 173.201 331.817C175.365 330.248 177.482 328.631 179.526 327.061C203.438 338.292 229.565 344.149 255.999 344.149C282.435 344.149 308.561 338.292 332.474 327.06C334.543 328.748 336.66 330.365 338.799 331.815C330.559 336.685 321.906 340.818 312.939 344.167C317.647 353.412 323.129 362.243 329.326 370.564C356.858 362.256 382.754 349.269 405.879 332.172L405.873 332.179C412.15 267.075 395.148 210.649 360.932 160.621ZM205.78 297.63C190.872 297.63 178.554 284.1 178.554 267.455C178.554 250.81 190.443 237.162 205.732 237.162C221.022 237.162 233.243 250.81 232.982 267.455C232.72 284.1 220.974 297.63 205.78 297.63ZM306.219 297.63C291.286 297.63 279.017 284.1 279.017 267.455C279.017 250.81 290.906 237.162 306.219 237.162C321.532 237.162 333.659 250.81 333.397 267.455C333.136 284.1 321.413 297.63 306.219 297.63Z" fill="white"/>
</svg>
