<svg width="128" height="128" viewBox="0 0 128 128" fill="none" xmlns="http://www.w3.org/2000/svg">
<path d="M26.5539 94.6801C23.0965 94.6801 20.0643 94.0283 17.4571 92.7247C14.8499 91.3645 12.8095 89.4941 11.3359 87.1136C9.91892 84.6765 9.21044 81.9276 9.21044 78.867V76.2315C9.21044 75.9481 9.29546 75.7214 9.46549 75.5513C9.6922 75.3246 9.94725 75.2113 10.2306 75.2113H22.133C22.4164 75.2113 22.6431 75.3246 22.8132 75.5513C23.0399 75.7214 23.1532 75.9481 23.1532 76.2315V78.1868C23.1532 79.5471 23.4649 80.624 24.0884 81.4175C24.7685 82.211 25.6187 82.6077 26.6389 82.6077C27.6591 82.6077 28.4809 82.2393 29.1044 81.5025C29.7845 80.709 30.1246 79.7172 30.1246 78.5269C30.1246 77.2233 29.6145 76.0614 28.5943 75.0412C27.5741 73.9643 25.5337 72.3207 22.4731 70.1102C19.6392 68.0698 17.3154 66.2561 15.5017 64.6692C13.688 63.0255 12.1294 61.0134 10.8258 58.633C9.52217 56.1958 8.87037 53.3902 8.87037 50.2163C8.87037 46.9856 9.57885 44.1234 10.9958 41.6296C12.4694 39.1357 14.5098 37.2087 17.117 35.8484C19.7809 34.4881 22.8132 33.808 26.2138 33.808C29.6712 33.808 32.7035 34.5165 35.3106 35.9334C37.9745 37.2937 40.0149 39.2491 41.4319 41.7996C42.9055 44.2934 43.6423 47.184 43.6423 50.4713V52.5117C43.6423 52.7951 43.5289 53.0502 43.3022 53.2769C43.1322 53.4469 42.9055 53.5319 42.6221 53.5319H30.8047C30.5214 53.5319 30.2663 53.4469 30.0396 53.2769C29.8696 53.0502 29.7845 52.7951 29.7845 52.5117V50.1313C29.7845 48.8843 29.4445 47.8641 28.7643 47.0706C28.0842 46.2772 27.234 45.8804 26.2138 45.8804C25.1936 45.8804 24.3718 46.2772 23.7483 47.0706C23.1249 47.8641 22.8132 48.9127 22.8132 50.2163C22.8132 51.6332 23.2949 52.9085 24.2584 54.042C25.222 55.1756 27.1774 56.8193 30.1246 58.973C33.6953 61.6369 36.3875 63.7906 38.2012 65.4343C40.0149 67.078 41.4319 68.92 42.4521 70.9604C43.4723 72.9441 43.9824 75.2963 43.9824 78.0168C43.9824 83.1178 42.3671 87.1703 39.1364 90.1742C35.9624 93.1782 31.7683 94.6801 26.5539 94.6801ZM81.1454 45.5403C81.1454 45.8237 81.0321 46.0788 80.8053 46.3055C80.6353 46.4755 80.4086 46.5605 80.1252 46.5605H63.0368C62.7534 46.5605 62.6117 46.7022 62.6117 46.9856V57.6978C62.6117 57.9812 62.7534 58.1228 63.0368 58.1228H72.3887C72.672 58.1228 72.8988 58.2362 73.0688 58.4629C73.2955 58.6329 73.4089 58.8597 73.4089 59.1431V69.2601C73.4089 69.5435 73.2955 69.7985 73.0688 70.0252C72.8988 70.1953 72.672 70.2803 72.3887 70.2803H63.0368C62.7534 70.2803 62.6117 70.422 62.6117 70.7054V92.9798C62.6117 93.2632 62.4984 93.5182 62.2716 93.7449C62.1016 93.915 61.8749 94 61.5915 94H49.5191C49.2357 94 48.9807 93.915 48.7539 93.7449C48.5839 93.5182 48.4989 93.2632 48.4989 92.9798V35.5083C48.4989 35.225 48.5839 34.9982 48.7539 34.8282C48.9807 34.6015 49.2357 34.4881 49.5191 34.4881H80.1252C80.4086 34.4881 80.6353 34.6015 80.8053 34.8282C81.0321 34.9982 81.1454 35.225 81.1454 35.5083V45.5403ZM100.764 81.4175C100.65 81.5308 100.622 81.6442 100.679 81.7576C100.735 81.8709 100.849 81.9276 101.019 81.9276H118.022C118.306 81.9276 118.532 82.0409 118.702 82.2677C118.929 82.4377 119.042 82.6644 119.042 82.9478V92.9798C119.042 93.2632 118.929 93.5182 118.702 93.7449C118.532 93.915 118.306 94 118.022 94H84.6955C84.4121 94 84.1571 93.915 83.9304 93.7449C83.7603 93.5182 83.6753 93.2632 83.6753 92.9798V82.6077C83.6753 82.211 83.817 81.7859 84.1004 81.3325C83.9304 81.5592 85.404 79.8305 88.5213 76.1464C90.675 73.5959 92.7721 71.0738 94.8125 68.5799C96.8529 66.0294 98.5249 63.7906 99.8285 61.8636C102.662 57.4994 104.079 53.7586 104.079 50.6414C104.079 49.0544 103.768 47.8641 103.144 47.0706C102.577 46.2772 101.812 45.8804 100.849 45.8804C99.8852 45.8804 99.0917 46.2772 98.4683 47.0706C97.9015 47.8641 97.6464 48.8843 97.7031 50.1313V53.787C97.7031 54.0704 97.5898 54.3254 97.363 54.5521C97.193 54.7222 96.9663 54.8072 96.6829 54.8072H84.4405C84.1571 54.8072 83.902 54.7222 83.6753 54.5521C83.5053 54.3254 83.4203 54.0704 83.4203 53.787V49.5361C83.7037 44.8319 85.5174 41.0344 88.8614 38.1439C92.2054 35.2533 96.4279 33.808 101.529 33.808C104.816 33.808 107.735 34.5165 110.286 35.9334C112.836 37.3504 114.82 39.3341 116.237 41.8846C117.654 44.4351 118.362 47.3824 118.362 50.7264C118.362 53.7303 117.88 56.5359 116.917 59.1431C116.01 61.6936 114.508 64.4424 112.411 67.3897C110.711 69.8268 107.962 73.1708 104.164 77.4217L100.764 81.4175Z" fill="white"/>
</svg>
