<svg width="366" height="90" viewBox="0 0 366 90" fill="none" xmlns="http://www.w3.org/2000/svg">
<path d="M68.0003 44.5C67.9003 37.4 74.0003 33.9 74.2003 33.7C70.8003 28.8 65.5003 28.2 63.6003 28.1C59.2003 27.6 54.8003 30.7 52.6003 30.7C50.3003 30.7 46.8003 28.1 43.1003 28.2C38.3003 28.3 33.7003 31 31.3003 35.3C26.2003 44 30.0003 56.7 34.9003 63.7C37.4003 67.1 40.2003 71 44.0003 70.8C47.7003 70.7 49.0003 68.5 53.5003 68.5C57.9003 68.5 59.2003 70.8 63.0003 70.7C66.9003 70.6 69.4003 67.3 71.8003 63.8C74.6003 59.9 75.8003 56 75.8003 55.8C75.6003 55.9 68.0003 53 68.0003 44.5Z" fill="white"/>
<path d="M60.7 23.5C62.7 21.1 64 17.8 63.6 14.5C60.7 14.6 57.2 16.4 55.1 18.8C53.3 20.9 51.7 24.3 52.1 27.5C55.4 27.7 58.7 25.9 60.7 23.5Z" fill="white"/>
<path d="M123.6 70.4H119.3L118.7 58.8C118.4 53.5 118.3 49.6 118.3 47.1H118.2C117.3 50.4 116.2 53.9 114.9 57.6L110.6 70.2H107.2L103.2 57.8C102 54.1 101.1 50.5 100.3 47.1H100.2C100.1 51.3 99.8998 55.3 99.6998 59L98.9998 70.4H94.7998L96.6998 42.6H102.4L106.4 54.7C107.4 57.7 108.3 60.9 109 64.3H109.1C110 60.7 110.9 57.6 111.9 54.7L116.1 42.6H121.8L123.6 70.4Z" fill="white"/>
<path d="M143.101 70.4H139.101L138.801 68.1H138.701C137.301 69.9 135.401 70.9 132.801 70.9C130.901 70.9 129.401 70.3 128.201 69.1C127.201 68 126.601 66.6 126.601 65C126.601 62.6 127.601 60.7 129.701 59.4C131.801 58.1 134.601 57.5 138.401 57.5V57.1C138.401 54.5 137.001 53.1 134.201 53.1C132.201 53.1 130.501 53.6 129.001 54.6L128.101 51.7C130.001 50.5 132.301 50 135.001 50C140.201 50 142.901 52.8 142.901 58.3V65.7C142.901 67.7 143.001 69.3 143.101 70.4ZM138.501 63.5V60.4C133.601 60.3 131.101 61.7 131.101 64.4C131.101 65.4 131.401 66.2 132.001 66.8C132.601 67.3 133.301 67.6 134.201 67.6C135.201 67.6 136.101 67.3 136.901 66.7C137.701 66.1 138.201 65.3 138.401 64.3C138.501 64.1 138.501 63.9 138.501 63.5Z" fill="white"/>
<path d="M161.9 50.9L161 54.3C159.9 53.8 158.6 53.5 157.1 53.5C155.1 53.5 153.6 54.2 152.5 55.5C151.4 56.8 150.8 58.5 150.8 60.5C150.8 62.6 151.4 64.3 152.6 65.5C153.8 66.7 155.3 67.4 157.2 67.4C158.6 67.4 159.9 67.1 161.2 66.6L161.8 69.9C160.3 70.6 158.5 70.9 156.3 70.9C153.2 70.9 150.8 70 149 68.1C147.2 66.2 146.3 63.8 146.3 60.6C146.3 57.5 147.3 54.9 149.2 52.9C151.2 50.9 153.8 49.9 157.1 49.9C159 50 160.6 50.3 161.9 50.9Z" fill="white"/>
<path d="M194.9 70.4H190.2L187.6 62.2H178.6L176.1 70.4H171.5L180.5 42.6H186L194.9 70.4ZM186.7 58.8L184.3 51.5C184.1 50.8 183.6 49 182.9 46.3H182.8C182.5 47.5 182.1 49.2 181.5 51.5L179.2 58.8H186.7Z" fill="white"/>
<path d="M217.9 60.2C217.9 63.6 217 66.3 215.1 68.3C213.4 70.1 211.4 70.9 208.9 70.9C206.3 70.9 204.4 70 203.2 68.1H203.1V78.7H198.6V57C198.6 54.9 198.5 52.7 198.4 50.4H202.3L202.6 53.6H202.7C204.2 51.2 206.4 50 209.5 50C211.9 50 213.8 50.9 215.4 52.8C217.1 54.6 217.9 57.1 217.9 60.2ZM213.4 60.3C213.4 58.3 213 56.7 212.1 55.5C211.1 54.2 209.8 53.5 208.2 53.5C207.1 53.5 206.1 53.9 205.2 54.6C204.3 55.3 203.7 56.3 203.4 57.5C203.3 58.1 203.2 58.5 203.2 58.9V62.2C203.2 63.7 203.6 64.9 204.5 65.9C205.4 66.9 206.6 67.4 208 67.4C209.7 67.4 211 66.8 211.9 65.5C212.9 64.2 213.4 62.4 213.4 60.3Z" fill="white"/>
<path d="M241 60.2C241 63.6 240.1 66.3 238.2 68.3C236.5 70.1 234.5 70.9 232 70.9C229.4 70.9 227.5 70 226.3 68.1H226.2V78.7H221.7V57C221.7 54.9 221.6 52.7 221.5 50.4H225.4L225.6 53.6H225.7C227.2 51.2 229.4 50 232.5 50C234.9 50 236.8 50.9 238.4 52.8C240.2 54.6 241 57.1 241 60.2ZM236.5 60.3C236.5 58.3 236.1 56.7 235.2 55.5C234.2 54.2 232.9 53.5 231.3 53.5C230.2 53.5 229.2 53.9 228.3 54.6C227.4 55.3 226.8 56.3 226.5 57.5C226.4 58.1 226.3 58.5 226.3 58.9V62.2C226.3 63.7 226.7 64.9 227.6 65.9C228.5 66.9 229.7 67.4 231.1 67.4C232.8 67.4 234.1 66.8 235 65.5C236 64.2 236.5 62.4 236.5 60.3Z" fill="white"/>
<path d="M266.8 62.6C266.8 65 266 66.8999 264.3 68.3999C262.5 69.9999 260 70.7999 256.7 70.7999C253.7 70.7999 251.3 70.2 249.5 69.1L250.5 65.3999C252.5 66.5999 254.6 67.2 256.9 67.2C258.6 67.2 259.9 66.8 260.8 66.1C261.7 65.3 262.2 64.3 262.2 63.1C262.2 62 261.8 61 261 60.2C260.2 59.4 259 58.7 257.2 58C252.3 56.2 249.9 53.5 249.9 50C249.9 47.7 250.8 45.7999 252.5 44.3999C254.2 42.8999 256.5 42.2 259.3 42.2C261.8 42.2 263.9 42.6 265.6 43.5L264.5 47.1C262.9 46.2 261.2 45.8 259.2 45.8C257.6 45.8 256.4 46.2 255.5 47C254.8 47.7 254.4 48.5 254.4 49.5C254.4 50.6 254.8 51.5 255.7 52.2C256.4 52.9 257.8 53.5999 259.7 54.2999C262.1 55.2999 263.9 56.4 265 57.7C266.3 59.1 266.8 60.7 266.8 62.6Z" fill="white"/>
<path d="M281.6 53.7H276.7V63.4C276.7 65.9 277.6 67.1 279.3 67.1C280.1 67.1 280.8 67 281.3 66.9L281.4 70.3C280.5 70.6 279.4 70.8 277.9 70.8C276.1 70.8 274.8 70.3 273.8 69.2C272.8 68.1 272.3 66.3 272.3 63.8V53.7H269.4V50.4H272.3V46.7L276.7 45.4V50.4H281.6V53.7Z" fill="white"/>
<path d="M303.701 60.2C303.701 63.3 302.801 65.8 301.101 67.8C299.301 69.8 296.801 70.9 293.701 70.9C290.801 70.9 288.401 69.9 286.701 68C285.001 66 284.101 63.6 284.101 60.6C284.101 57.5 285.001 54.9 286.801 53C288.601 51 291.001 50 294.101 50C297.001 50 299.401 51 301.201 52.9C302.901 54.8 303.701 57.2 303.701 60.2ZM299.101 60.4C299.101 58.6 298.701 57 297.901 55.6C297.001 54 295.601 53.2 293.901 53.2C292.101 53.2 290.701 54 289.801 55.6C289.001 56.9 288.601 58.5 288.601 60.4C288.601 62.2 289.001 63.8 289.801 65.2C290.801 66.8 292.101 67.6 293.801 67.6C295.501 67.6 296.801 66.8 297.801 65.2C298.701 63.8 299.101 62.2 299.101 60.4Z" fill="white"/>
<path d="M318.2 54.3C317.8 54.2 317.3 54.2 316.8 54.2C315.2 54.2 314 54.8 313.2 56C312.5 57.1 312.1 58.4 312.1 60V70.5H307.6V56.8C307.6 54.5 307.5 52.4 307.4 50.5H311.3L311.5 54.3H311.6C312.1 53 312.8 51.9 313.8 51.1C314.8 50.4 315.9 50 317 50C317.4 50 317.8 50 318.1 50.1L318.2 54.3Z" fill="white"/>
<path d="M338.2 59.5C338.2 60.3 338.1 61 338 61.5H324.6C324.7 63.5 325.3 65 326.5 66C327.6 66.9 329.1 67.4 330.9 67.4C332.9 67.4 334.7 67.1 336.3 66.4L337 69.5C335.1 70.3 332.9 70.7001 330.3 70.7001C327.2 70.7001 324.7 69.8 323 68C321.2 66.2 320.3 63.7001 320.3 60.6001C320.3 57.6001 321.1 55.1 322.8 53C324.5 50.9 326.9 49.8 329.8 49.8C332.7 49.8 334.9 50.9 336.4 53C337.6 54.8 338.2 57 338.2 59.5ZM333.9 58.3C333.9 57 333.6 55.8 333 54.9C332.2 53.7 331 53 329.4 53C327.9 53 326.8 53.6 325.8 54.8C325.1 55.8 324.6 56.9 324.5 58.3H333.9Z" fill="white"/>
<path d="M108.8 22.9C108.8 25.5 108 27.5 106.5 28.8C105.1 30 103 30.6 100.3 30.6C99.0004 30.6 97.9004 30.5 96.9004 30.4V16.2C98.1004 16 99.5004 15.9 100.9 15.9C103.4 15.9 105.3 16.5 106.6 17.6C108.1 18.8 108.8 20.6 108.8 22.9ZM106.4 23C106.4 21.3 106 20 105.1 19.1C104.2 18.2 102.9 17.7 101.2 17.7C100.5 17.7 99.8004 17.7 99.3004 17.9V28.7C99.6004 28.7 100.1 28.8 100.9 28.8C102.7 28.8 104 28.3 105 27.3C105.9 26.3 106.4 24.9 106.4 23Z" fill="white"/>
<path d="M121.8 25.2C121.8 26.8 121.3 28.1 120.4 29.1C119.4 30.2 118.2 30.7 116.6 30.7C115.1 30.7 113.9 30.2 112.9 29.2C112 28.2 111.5 26.9 111.5 25.4C111.5 23.8 112 22.5 112.9 21.4C113.8 20.4 115.1 19.9 116.7 19.9C118.2 19.9 119.5 20.4 120.4 21.4C121.3 22.4 121.8 23.6 121.8 25.2ZM119.4 25.3C119.4 24.3 119.2 23.5 118.8 22.8C118.3 22 117.6 21.6 116.7 21.6C115.8 21.6 115.1 22 114.6 22.8C114.2 23.5 114 24.3 114 25.3C114 26.3 114.2 27.1 114.6 27.8C115.1 28.6 115.8 29 116.7 29C117.6 29 118.3 28.6 118.8 27.7C119.1 27.1 119.4 26.2 119.4 25.3Z" fill="white"/>
<path d="M139.101 20.1L135.801 30.5H133.701L132.301 26C132.001 24.9 131.701 23.7 131.501 22.6C131.301 23.7 131.001 24.9 130.701 26L129.301 30.5H127.201L124.101 20.1H126.501L127.701 25.1C128.001 26.3 128.201 27.4 128.401 28.4C128.601 27.5 128.901 26.4 129.301 25.1L130.801 20.1H132.701L134.101 25C134.401 26.2 134.701 27.3 134.901 28.4H135.001C135.201 27.3 135.401 26.2 135.701 25L137.001 20.1H139.101Z" fill="white"/>
<path d="M151.201 30.5H148.901V24.5C148.901 22.7 148.201 21.7 146.801 21.7C146.101 21.7 145.601 22 145.101 22.5C144.701 23 144.501 23.6 144.501 24.3V30.5H142.201V23C142.201 22.1 142.201 21.1 142.101 20H144.101L144.201 21.6H144.301C144.601 21.1 145.001 20.7 145.501 20.3C146.101 19.9 146.801 19.7 147.601 19.7C148.601 19.7 149.401 20 150.001 20.6C150.801 21.4 151.201 22.5 151.201 24.1V30.5Z" fill="white"/>
<path d="M157.5 15.3H155.2V30.5H157.5V15.3Z" fill="white"/>
<path d="M171.2 25.2C171.2 26.8 170.7 28.1 169.8 29.1C168.8 30.2 167.6 30.7 166 30.7C164.5 30.7 163.3 30.2 162.3 29.2C161.4 28.2 160.9 26.9 160.9 25.4C160.9 23.8 161.4 22.5 162.3 21.4C163.2 20.4 164.5 19.9 166.1 19.9C167.6 19.9 168.9 20.4 169.8 21.4C170.8 22.4 171.2 23.6 171.2 25.2ZM168.8 25.3C168.8 24.3 168.6 23.5 168.2 22.8C167.7 22 167 21.6 166.1 21.6C165.2 21.6 164.5 22 164 22.8C163.6 23.5 163.4 24.3 163.4 25.3C163.4 26.3 163.6 27.1 164 27.8C164.5 28.6 165.2 29 166.1 29C167 29 167.7 28.6 168.2 27.7C168.6 27.1 168.8 26.2 168.8 25.3Z" fill="white"/>
<path d="M182.401 30.5H180.301L180.101 29.3H180.001C179.301 30.3 178.301 30.7 177.001 30.7C176.001 30.7 175.201 30.4 174.601 29.8C174.101 29.2 173.801 28.5 173.801 27.7C173.801 26.4 174.301 25.5 175.401 24.8C176.501 24.1 178.001 23.8 179.901 23.8V23.6C179.901 22.2 179.201 21.5 177.701 21.5C176.701 21.5 175.801 21.8 175.001 22.3L174.501 20.8C175.501 20.2 176.701 19.9 178.101 19.9C180.801 19.9 182.201 21.3 182.201 24.2V28C182.301 29 182.301 29.9 182.401 30.5ZM180.001 26.9V25.3C177.401 25.3 176.201 26 176.201 27.4C176.201 27.9 176.301 28.4 176.601 28.6C176.901 28.9 177.301 29 177.701 29C178.201 29 178.701 28.8 179.101 28.5C179.501 28.2 179.801 27.8 179.901 27.3L180.001 26.9Z" fill="white"/>
<path d="M195.6 30.5H193.5L193.4 28.8H193.3C192.6 30.1 191.5 30.7 190 30.7C188.7 30.7 187.7 30.2 186.9 29.2C186.1 28.2 185.7 26.8999 185.7 25.3999C185.7 23.6999 186.1 22.3 187 21.3C187.9 20.3 188.9 19.8 190.2 19.8C191.6 19.8 192.6 20.3 193.1 21.2V15.2H195.4V27.6C195.5 28.7 195.5 29.6 195.6 30.5ZM193.2 26.1V24.3999C193.2 24.0999 193.2 23.9 193.1 23.7C193 23.1 192.7 22.7 192.3 22.3C191.9 21.9 191.4 21.7 190.7 21.7C189.8 21.7 189.2 22 188.7 22.7C188.2 23.4 188 24.3 188 25.3C188 26.3 188.2 27.2 188.7 27.8C189.2 28.5 189.9 28.8 190.7 28.8C191.5 28.8 192.1 28.4999 192.5 27.8999C193 27.4999 193.2 26.8 193.2 26.1Z" fill="white"/>
<path d="M215.401 25.2C215.401 26.8 214.901 28.1 214.001 29.1C213.001 30.2 211.801 30.7 210.201 30.7C208.701 30.7 207.501 30.2 206.501 29.2C205.601 28.2 205.101 26.9 205.101 25.4C205.101 23.8 205.601 22.5 206.501 21.4C207.401 20.4 208.701 19.9 210.301 19.9C211.801 19.9 213.101 20.4 214.001 21.4C215.001 22.4 215.401 23.6 215.401 25.2ZM213.001 25.3C213.001 24.3 212.801 23.5 212.401 22.8C211.901 22 211.201 21.6 210.301 21.6C209.401 21.6 208.701 22 208.201 22.8C207.801 23.5 207.601 24.3 207.601 25.3C207.601 26.3 207.801 27.1 208.201 27.8C208.701 28.6 209.401 29 210.301 29C211.201 29 211.901 28.6 212.401 27.7C212.801 27.1 213.001 26.2 213.001 25.3Z" fill="white"/>
<path d="M227.9 30.5H225.6V24.5C225.6 22.7 224.9 21.7 223.5 21.7C222.8 21.7 222.3 22 221.8 22.5C221.4 23 221.2 23.6 221.2 24.3V30.5H218.9V23C218.9 22.1 218.9 21.1 218.8 20H220.8L220.9 21.6H221C221.3 21.1 221.7 20.7 222.2 20.3C222.8 19.9 223.5 19.7 224.3 19.7C225.3 19.7 226.1 20 226.7 20.6C227.5 21.4 227.9 22.5 227.9 24.1V30.5Z" fill="white"/>
<path d="M243.5 21.8H240.9V26.9C240.9 28.2 241.4 28.8 242.3 28.8C242.7 28.8 243.1 28.8 243.3 28.7L243.4 30.5C242.9 30.7 242.3 30.8 241.6 30.8C240.7 30.8 240 30.5 239.5 30C239 29.4 238.7 28.5 238.7 27.2V21.9H237.2V20.2H238.7V18.3L241 17.6V20.2H243.6L243.5 21.8Z" fill="white"/>
<path d="M255.9 30.5H253.6V24.6001C253.6 22.7001 252.9 21.8 251.5 21.8C250.4 21.8 249.7 22.3 249.3 23.4C249.2 23.6 249.2 23.9 249.2 24.2V30.5H246.9V15.3H249.2V21.6001C249.9 20.5001 251 19.9 252.3 19.9C253.3 19.9 254.1 20.2 254.7 20.8C255.5 21.6 255.9 22.8 255.9 24.3V30.5Z" fill="white"/>
<path d="M267.901 24.8C267.901 25.2 267.901 25.6 267.801 25.9H260.801C260.801 26.9 261.201 27.7 261.801 28.3C262.401 28.8 263.101 29 264.101 29C265.101 29 266.101 28.8 266.901 28.5L267.301 30.1C266.301 30.5 265.101 30.7 263.801 30.7C262.201 30.7 260.901 30.2 260.001 29.3C259.101 28.3 258.601 27.1 258.601 25.5C258.601 23.9 259.001 22.6 259.901 21.6C260.801 20.5 262.001 19.9 263.501 19.9C265.001 19.9 266.101 20.5 266.901 21.6C267.601 22.4 267.901 23.5 267.901 24.8ZM265.701 24.2C265.701 23.5 265.601 22.9 265.301 22.4C264.901 21.8 264.301 21.4 263.501 21.4C262.701 21.4 262.101 21.7 261.701 22.3C261.301 22.8 261.101 23.4 261.001 24.1H265.701V24.2Z" fill="white"/>
</svg>
