<svg width="855" height="303" viewBox="0 0 855 303" fill="none" xmlns="http://www.w3.org/2000/svg">
<g clip-path="url(#clip0_2030_135)">
<path d="M149.3 63.6H65.5V147.4H149.3V63.6Z" fill="#F25022"/>
<path d="M241.8 63.6H158V147.4H241.8V63.6Z" fill="#7FBA00"/>
<path d="M149.3 156H65.5V239.8H149.3V156Z" fill="#00A4EF"/>
<path d="M241.8 156H158V239.8H241.8V156Z" fill="#FFB900"/>
<path d="M403.3 158C403.3 155.5 404.2 153.5 406 151.8C407.8 150.1 409.9 149.3 412.4 149.3C415 149.3 417.2 150.2 418.9 151.9C420.6 153.6 421.5 155.7 421.5 158C421.5 160.4 420.6 162.5 418.8 164.1C417 165.8 414.9 166.6 412.3 166.6C409.7 166.6 407.6 165.8 405.8 164.1C404.2 162.4 403.3 160.4 403.3 158ZM419.8 239.8H404.9V176.3H419.8V239.8Z" fill="white"/>
<path d="M465.2 228.9C467.4 228.9 469.9 228.4 472.6 227.4C475.3 226.4 477.7 225 480 223.3V237.2C477.6 238.6 474.9 239.6 471.9 240.3C468.9 241 465.5 241.4 461.9 241.4C452.6 241.4 445 238.4 439.1 232.5C433.2 226.6 430.3 219 430.3 209.9C430.3 199.7 433.3 191.3 439.3 184.7C445.3 178.1 453.7 174.8 464.7 174.8C467.5 174.8 470.3 175.2 473.2 175.9C476.1 176.6 478.3 177.5 480 178.4V192.7C477.7 191 475.3 189.7 472.9 188.8C470.5 187.9 468 187.4 465.5 187.4C459.6 187.4 454.9 189.3 451.2 193.1C447.6 196.9 445.8 202.1 445.8 208.6C445.8 215 447.5 220 451 223.6C454.5 227.2 459.2 228.9 465.2 228.9Z" fill="white"/>
<path d="M522.5 175.3C523.7 175.3 524.8 175.4 525.7 175.5C526.6 175.7 527.5 175.9 528.1 176.1V191.2C527.3 190.6 526.2 190.1 524.7 189.6C523.2 189.1 521.4 188.8 519.2 188.8C515.5 188.8 512.4 190.3 509.9 193.4C507.4 196.5 506.1 201.2 506.1 207.7V239.8H491.2V176.3H506.1V186.3H506.3C507.7 182.8 509.7 180.1 512.5 178.2C515.3 176.3 518.6 175.3 522.5 175.3Z" fill="white"/>
<path d="M528.9 209C528.9 198.5 531.9 190.2 537.8 184C543.7 177.9 552 174.8 562.5 174.8C572.4 174.8 580.2 177.8 585.8 183.7C591.4 189.6 594.2 197.6 594.2 207.6C594.2 217.9 591.2 226.1 585.3 232.2C579.4 238.3 571.3 241.3 561.1 241.3C551.3 241.3 543.4 238.4 537.7 232.6C531.8 226.9 528.9 219 528.9 209ZM544.5 208.5C544.5 215.1 546 220.2 549 223.7C552 227.2 556.3 228.9 561.9 228.9C567.3 228.9 571.5 227.2 574.3 223.7C577.1 220.2 578.6 215 578.6 208.1C578.6 201.3 577.1 196.1 574.2 192.6C571.3 189.1 567.1 187.4 561.8 187.4C556.3 187.4 552.1 189.2 549 192.9C546 196.6 544.5 201.7 544.5 208.5Z" fill="white"/>
<path d="M616.4 193C616.4 195.1 617.1 196.8 618.4 198C619.8 199.2 622.8 200.7 627.4 202.6C633.4 205 637.6 207.7 640 210.7C642.4 213.7 643.6 217.3 643.6 221.5C643.6 227.5 641.3 232.3 636.7 235.9C632.1 239.5 625.9 241.3 618.1 241.3C615.5 241.3 612.6 241 609.4 240.3C606.2 239.7 603.5 238.8 601.3 237.9V223.2C604 225.1 606.9 226.6 610.1 227.7C613.2 228.8 616.1 229.4 618.6 229.4C622 229.4 624.5 228.9 626.1 228C627.7 227.1 628.5 225.5 628.5 223.2C628.5 221.1 627.7 219.4 626 218C624.3 216.6 621.2 214.9 616.5 213.1C611 210.8 607.1 208.2 604.8 205.3C602.5 202.4 601.3 198.7 601.3 194.3C601.3 188.6 603.6 183.9 608.1 180.2C612.6 176.5 618.5 174.7 625.8 174.7C628 174.7 630.5 174.9 633.3 175.4C636.1 175.9 638.4 176.5 640.2 177.3V191.5C638.2 190.2 635.9 189.1 633.3 188.1C630.7 187.2 628 186.7 625.5 186.7C622.7 186.7 620.4 187.3 618.9 188.4C617.2 189.5 616.4 191.1 616.4 193Z" fill="white"/>
<path d="M650.2 209C650.2 198.5 653.2 190.2 659.1 184C665 177.9 673.3 174.8 683.8 174.8C693.7 174.8 701.5 177.8 707.1 183.7C712.7 189.6 715.5 197.6 715.5 207.6C715.5 217.9 712.5 226.1 706.6 232.2C700.7 238.3 692.6 241.3 682.4 241.3C672.6 241.3 664.7 238.4 659 232.6C653.1 226.9 650.2 219 650.2 209ZM665.7 208.5C665.7 215.1 667.2 220.2 670.2 223.7C673.2 227.2 677.5 228.9 683.1 228.9C688.5 228.9 692.7 227.2 695.5 223.7C698.3 220.2 699.8 215 699.8 208.1C699.8 201.3 698.3 196.1 695.4 192.6C692.5 189.1 688.3 187.4 683 187.4C677.5 187.4 673.3 189.2 670.2 192.9C667.2 196.6 665.7 201.7 665.7 208.5Z" fill="white"/>
<path d="M764.8 188.6V221.2C764.8 228 766.4 233 769.5 236.4C772.6 239.8 777.4 241.4 783.7 241.4C785.8 241.4 788 241.2 790.2 240.7C792.4 240.2 794 239.8 794.9 239.2V226.8C794 227.4 792.9 227.9 791.7 228.3C790.5 228.7 789.4 228.9 788.6 228.9C785.6 228.9 783.3 228.1 781.9 226.5C780.5 224.9 779.8 222.1 779.8 218.2V188.5H795V176.3H779.9V157.5L764.9 162.1V176.4H742.6V168.7C742.6 164.9 743.4 162 745.1 160C746.8 158 749.2 157.1 752.3 157.1C753.9 157.1 755.3 157.3 756.6 157.7C757.8 158.1 758.7 158.5 759.2 158.8V145.9C758.1 145.5 756.9 145.3 755.5 145.1C754.1 144.9 752.5 144.8 750.7 144.8C743.9 144.8 738.3 146.9 734 151.2C729.7 155.5 727.5 160.9 727.5 167.6V176.4H716.9V188.6H727.5V239.9H742.6V188.6H764.8Z" fill="white"/>
<path d="M390.5 151.2V239.8H375.1V170.4H374.9L347.4 239.8H337.2L309 170.4H308.8V239.8H294.6V151.2H316.6L342.1 216.9H342.5L369.4 151.2H390.5Z" fill="white"/>
<path d="M335 112.9C329.7 115.9 323.7 117.4 317 117.4C311.9 117.4 307.4 116.3 303.4 114C299.5 111.8 296.4 108.6 294.3 104.5C292.2 100.4 291.1 95.8 291.1 90.7C291.1 85.3 292.3 80.4 294.6 76.2C296.9 72 300.2 68.6 304.5 66.2C308.8 63.8 313.6 62.6 319 62.6C321.7 62.6 324.4 62.9 327.1 63.4C329.8 63.9 332 64.6 333.7 65.4V73.4C329.7 70.7 324.6 69.4 318.4 69.4C314.7 69.4 311.4 70.3 308.4 72.1C305.4 73.9 303.1 76.4 301.5 79.5C299.9 82.7 299.1 86.3 299.1 90.3C299.1 96.6 300.8 101.6 304.1 105.3C307.4 109 312 110.8 317.8 110.8C321.5 110.8 324.8 110.1 327.6 108.6V94.9H316.3V88.3H335V112.9Z" fill="white"/>
<path d="M378.1 99.6H351.9C352 103.4 353.2 106.3 355.2 108.4C357.3 110.4 360 111.5 363.4 111.5C367.9 111.5 371.8 110.2 375.2 107.6V114C373.7 115 371.8 115.9 369.5 116.5C367.2 117.1 364.8 117.4 362.4 117.4C356.7 117.4 352.2 115.7 349.1 112.3C346 108.9 344.4 104.1 344.4 97.9C344.4 94.1 345.2 90.6 346.7 87.6C348.2 84.5 350.4 82.1 353.1 80.4C355.8 78.7 358.9 77.8 362.2 77.8C367.1 77.8 371 79.4 373.8 82.6C376.6 85.8 378 90.2 378 95.9V99.6H378.1ZM370.8 93.9C370.8 90.6 370 88.1 368.5 86.4C367 84.7 364.9 83.8 362.1 83.8C359.6 83.8 357.4 84.7 355.5 86.5C353.6 88.3 352.5 90.8 351.9 93.9H370.8Z" fill="white"/>
<path d="M406.5 116.1C405.8 116.5 404.9 116.8 403.6 117C402.4 117.2 401.3 117.3 400.3 117.3C393.3 117.3 389.8 113.4 389.8 105.7V84.7H383.4V78.7H389.8V69.7L397.1 67.4V78.6H406.4V84.6H397.1V104.4C397.1 106.9 397.5 108.7 398.3 109.7C399.1 110.7 400.5 111.2 402.6 111.2C404 111.2 405.3 110.8 406.4 110V116.1H406.5Z" fill="white"/>
<path d="M442.7 65.3C442.7 66.5 442.3 67.5 441.4 68.4C440.5 69.3 439.4 69.7 438.1 69.7C436.8 69.7 435.7 69.3 434.8 68.4C433.9 67.6 433.5 66.5 433.5 65.2C433.5 63.9 434 62.8 434.9 62C435.8 61.2 436.9 60.7 438.1 60.7C439.3 60.7 440.4 61.1 441.3 62C442.3 63 442.7 64 442.7 65.3ZM441.7 116.5H434.4V78.7H441.7V116.5Z" fill="white"/>
<path d="M473.4 116.1C472.7 116.5 471.8 116.8 470.5 117C469.3 117.2 468.2 117.3 467.2 117.3C460.2 117.3 456.7 113.4 456.7 105.7V84.7H450.3V78.7H456.7V69.7L464 67.4V78.6H473.3V84.6H464V104.4C464 106.9 464.4 108.7 465.2 109.7C466 110.7 467.4 111.2 469.5 111.2C470.9 111.2 472.2 110.8 473.3 110V116.1H473.4Z" fill="white"/>
<path d="M521.2 66.7C520 66.1 518.7 65.7 517.2 65.7C513.1 65.7 511.1 68.2 511.1 73.2V78.6H519.7V84.6H511.1V116.4H503.8V84.7H497.4V78.7H503.8V72.9C503.8 68.9 504.9 65.7 507.2 63.3C509.5 60.9 512.6 59.7 516.6 59.7C518.6 59.7 520.1 59.9 521.3 60.4V66.7H521.2Z" fill="white"/>
<path d="M548.1 86C547.7 85.7 546.9 85.4 545.9 85.1C544.9 84.9 544 84.7 543.3 84.7C540.7 84.7 538.6 85.9 537 88.2C535.4 90.5 534.6 93.5 534.6 97.2V116.5H527.3V78.7H534.6V86.3H534.8C535.6 83.7 536.9 81.7 538.6 80.2C540.3 78.7 542.3 78 544.5 78C546 78 547.2 78.2 548 78.5V86H548.1Z" fill="white"/>
<path d="M589.8 97.4C589.8 103.5 588 108.4 584.5 112C581 115.6 576.3 117.4 570.5 117.4C564.8 117.4 560.2 115.6 556.8 112.1C553.4 108.6 551.7 103.9 551.7 98C551.7 91.7 553.5 86.8 557 83.2C560.5 79.6 565.3 77.8 571.4 77.8C577.1 77.8 581.6 79.5 584.8 83C588.2 86.5 589.8 91.3 589.8 97.4ZM582.3 97.6C582.3 93.1 581.3 89.7 579.4 87.4C577.4 85.1 574.7 83.9 571.1 83.9C567.5 83.9 564.6 85.1 562.5 87.6C560.4 90 559.4 93.5 559.4 97.9C559.4 102.2 560.4 105.5 562.5 107.9C564.6 110.3 567.4 111.5 571.1 111.5C574.8 111.5 577.6 110.3 579.5 108C581.3 105.5 582.3 102.1 582.3 97.6Z" fill="white"/>
<path d="M655.1 116.5H647.8V95C647.8 91.1 647.2 88.3 646 86.5C644.8 84.7 642.7 83.9 639.8 83.9C637.4 83.9 635.3 85 633.7 87.2C632 89.4 631.2 92.1 631.2 95.1V116.5H623.9V94.3C623.9 87.4 621.2 83.9 615.9 83.9C613.4 83.9 611.3 85 609.7 87.1C608.1 89.2 607.3 91.9 607.3 95.2V116.6H600V78.7H607.3V84.6H607.4C610.1 80 614.1 77.8 619.2 77.8C621.6 77.8 623.8 78.5 625.8 79.8C627.7 81.1 629.1 83 630 85.4C631.5 82.8 633.2 80.9 635.3 79.6C637.4 78.4 639.8 77.7 642.6 77.7C650.9 77.7 655 82.8 655 93.1V116.5H655.1Z" fill="white"/>
</g>
<defs>
<clipPath id="clip0_2030_135">
<rect width="855" height="303" fill="white"/>
</clipPath>
</defs>
</svg>
